<?plantuml 1.2026.2?><svg xmlns="http://www.w3.org/2000/svg" xmlns:xlink="http://www.w3.org/1999/xlink" contentStyleType="text/css" data-diagram-type="DESCRIPTION" height="1413px" preserveAspectRatio="none" style="width:2024px;height:1413px;background:#FFFFFF;" version="1.1" viewBox="0 0 2024 1413" width="2024px" zoomAndPan="magnify"><title>&#1051;&#1054;&#1043;&#1056;&#1059;&#1057; MVP &#8212; &#1072;&#1073;&#1089;&#1090;&#1088;&#1072;&#1082;&#1090;&#1085;&#1072;&#1103; &#1082;&#1086;&#1084;&#1087;&#1086;&#1085;&#1077;&#1085;&#1090;&#1085;&#1072;&#1103; &#1089;&#1093;&#1077;&#1084;&#1072;</title><defs/><g><g class="title" data-source-line="1"><text fill="#000000" font-family="Inter" font-size="14" font-weight="bold" lengthAdjust="spacing" textLength="363.5283" x="823.6069" y="23.5352">&#1051;&#1054;&#1043;&#1056;&#1059;&#1057; MVP &#8212; &#1072;&#1073;&#1089;&#1090;&#1088;&#1072;&#1082;&#1090;&#1085;&#1072;&#1103; &#1082;&#1086;&#1084;&#1087;&#1086;&#1085;&#1077;&#1085;&#1090;&#1085;&#1072;&#1103; &#1089;&#1093;&#1077;&#1084;&#1072;</text></g><!--cluster Sources--><g class="cluster" data-qualified-name="Sources" data-source-line="20" id="ent0004"><path d="M111.058,224.6893 C119.1508,213.6606 130.9715,213.1233 138.7286,225.0932 C146.8539,212.8232 157.7597,215.3053 164.3986,226.7052 C171.2686,211.4893 185.5914,210.8519 194.07,225.0843 C201.2578,213.9616 209.4797,211.8408 219.2597,222.0189 C226.2899,206.9221 236.0723,208.6641 246.1333,218.7898 C255.1389,205.6681 265.4231,202.4672 275.9707,217.1341 C285.4934,206.3878 293.594,205.7047 302.9056,217.3877 C311.0811,204.4636 320.7269,206.5838 327.9014,218.399 C338.8876,206.4204 348.7778,205.815 356.0427,222.1038 C362.1155,210.9283 375.1999,209.951 382.3593,220.8058 C391.4094,206.9613 406.0239,210.8714 412.28,223.9149 C420.0477,213.2149 432.7118,213.0891 438.3168,226.2724 C443.5608,213.5642 455.7065,212.5164 462.8918,224.3266 C476.5538,208.9574 489.0138,212.635 495.5,231.2183 C496.7584,229.643 498.0305,229.8982 498.8477,231.6608 C512.6477,240.7083 516.694,250.0491 501.752,261.8607 C516.0338,272.3142 515.3511,283.3895 499.2674,291.2784 C513.8787,298.9066 514.0763,308.8727 501.6406,318.8305 C514.3736,324.8363 517.712,333.6495 506.3324,344.1273 C520.0184,351.9501 519.1561,366.0184 505.3762,372.9294 C520.158,382.0254 518.5903,394.5132 503.6546,401.8395 C517.1053,411.3433 517.9437,422.9462 502.2837,431.0855 C514.2034,440.4281 511.2718,451.9333 499.2281,458.6162 C512.869,466.8006 511.0121,476.3885 500.0648,485.3426 C515.4533,501.3663 506.9642,515.0232 488.5,519.6283 C490.9013,519.2131 491.9045,520.5834 491.177,522.8049 C484.7576,535.9881 475.2081,536.8065 465.8241,525.9287 C454.2466,539.9871 444.6156,541.7041 434.845,524.1575 C428.1874,535.5594 417.4877,534.9947 411.2151,523.7557 C404.8443,537.9839 391.7911,541.7941 381.6455,527.6962 C375.1213,541.078 366.8397,541.8182 357.111,530.9364 C347.4433,545.0573 337.5596,548.3908 326.5698,532.2716 C319.1176,543.062 311.4279,545.0179 303.2821,532.979 C293.699,546.9271 282.7242,547.4012 273.277,532.8361 C264.33,543.7803 252.6687,540.8518 249.0693,527.5064 C240.2112,542.9655 229.0813,539.9982 220.0733,527.6627 C211.4858,539.4729 201.1357,542.8458 192.3077,527.9124 C182.1743,538.1993 169.8339,537.9825 164.6474,522.585 C157.6913,532.532 146.8547,534.7012 140.4347,522.0115 C123.7424,535.2721 111.0331,532.3535 102.5,512.6283 C104.908,513.0855 105.4001,514.9731 103.633,516.6164 C92.6734,508.8808 91.3958,495.979 104.7874,489.2713 C88.4816,482.8748 89.6604,470.5595 101.5746,460.9605 C84.1929,455.2551 85.2333,439.9312 97.1522,430.0357 C83.4022,424.3849 84.4123,411.5547 95.7082,404.4883 C81.5227,394.5381 81.5736,384.1996 96.6274,375.166 C81.5894,366.6452 83.4615,357.99 95.5014,348.3329 C81.3187,336.5313 80.6984,324.1681 99.3261,316.282 C88.8846,305.962 88.9701,297.6713 102.7216,290.5429 C89.6649,284.0628 89.9242,271.0447 100.9718,263.0315 C85.6623,247.1647 89.416,232.3083 109.5,224.2183 C110.2697,223.5489 110.786,223.7125 111.058,224.6893" fill="#FFFFFF" style="stroke:#CBD5E1;stroke-width:1;"/><text fill="#000000" font-family="Inter" font-size="14" font-weight="bold" lengthAdjust="spacing" textLength="157.0557" x="220.4722" y="242.7534">&#1054;&#1090;&#1082;&#1088;&#1099;&#1090;&#1099;&#1077; &#1080;&#1089;&#1090;&#1086;&#1095;&#1085;&#1080;&#1082;&#1080;</text></g><!--cluster Logrus--><g class="cluster" data-qualified-name="Logrus" data-source-line="26" id="ent0008"><rect fill="#FFFFFF" height="1002.26" rx="2.5" ry="2.5" style="stroke:#CBD5E1;stroke-width:1;" width="597" x="543.5" y="207.9683"/><text fill="#000000" font-family="Inter" font-size="14" font-weight="bold" lengthAdjust="spacing" textLength="93.1943" x="795.4028" y="223.5034">&#1051;&#1054;&#1043;&#1056;&#1059;&#1057; MVP</text></g><!--cluster AI--><g class="cluster" data-qualified-name="AI" data-source-line="44" id="ent0017"><path d="M1029.0393,1293.0125 C1032.9017,1288.1195 1037.8157,1287.4578 1041.0686,1293.6726 C1044.2059,1288.6011 1047.6963,1288.7517 1051.5054,1292.913 C1054.4501,1286.7095 1059.2321,1286.6249 1062.9217,1292.1904 C1066.5907,1285.8311 1070.7783,1286.8324 1075.0062,1291.5825 C1078.6757,1286.0358 1083.8803,1286.8263 1086.3586,1292.7603 C1089.5525,1288.1114 1092.5458,1287.8378 1095.9077,1292.5896 C1099.0437,1287.3709 1102.3476,1285.4956 1107.0229,1290.9931 C1110.6404,1286.1321 1114.9966,1285.6807 1118.2047,1291.4248 C1122.2834,1286.4889 1127.9802,1287.6607 1130.4115,1293.3224 C1134.022,1287.7138 1137.9297,1287.1357 1142.3535,1292.4318 C1146.3446,1288.1329 1149.8326,1287.4243 1153.24,1293.0707 C1160.8597,1286.5614 1168.1991,1289.0518 1169.5,1299.2283 C1170.2986,1299.1788 1170.6239,1299.5926 1170.4211,1300.3589 C1175.7941,1303.5055 1175.0475,1307.6187 1170.2746,1310.6205 C1176.1435,1313.5447 1177.1605,1319.2265 1172.1719,1323.723 C1176.3541,1326.19 1176.3968,1330.7226 1172.3991,1333.382 C1179.0689,1336.1773 1179.8384,1341.4837 1174.0868,1345.9473 C1178.9065,1348.9974 1178.3652,1353.7225 1173.4413,1356.1565 C1179.5857,1360.0734 1178.007,1365.3475 1172.4809,1368.3447 C1176.8828,1371.5232 1176.3686,1376.0456 1171.6628,1378.4896 C1178.3219,1387.8763 1173.0634,1395.9729 1162.5,1396.6883 C1162.8056,1396.6838 1162.9305,1396.7955 1162.8386,1397.1101 C1160.1139,1402.7223 1156.3937,1402.7785 1152.119,1398.8521 C1149.278,1404.3505 1144.5686,1405.3124 1140.8767,1399.7141 C1137.0605,1404.0547 1134.0513,1403.8781 1131.0004,1398.9029 C1128.5269,1404.7179 1123.01,1405.3021 1119.4504,1400.0348 C1116.4546,1405.446 1110.8484,1405.3831 1107.6601,1400.2501 C1104.6639,1404.6946 1100.7964,1405.6861 1097.6774,1400.3758 C1094.2942,1406.2287 1088.6905,1405.5724 1085.2406,1400.4513 C1081.9565,1405.4228 1076.4338,1405.5269 1073.5206,1400.0358 C1069.7456,1404.7213 1066.056,1404.7566 1062.7808,1399.4961 C1060.0355,1403.8915 1055.3081,1403.5598 1052.953,1399.0648 C1049.3951,1405.0739 1043.7683,1403.9796 1040.9269,1398.326 C1030.7248,1406.2333 1023.1723,1400.9653 1021.5,1389.6883 C1022.5381,1389.398 1023.1562,1389.5456 1023.0982,1390.8129 C1015.7827,1388.4172 1016.2002,1384.4464 1019.9552,1379.0841 C1014.5417,1376.1889 1013.622,1371.5039 1019.4575,1368.0991 C1013.5453,1366.3427 1012.7881,1361.6988 1016.7783,1357.4509 C1009.769,1353.8862 1009.8214,1349.7504 1015.8268,1345.1767 C1011.3104,1341.946 1011.6352,1337.2709 1016.8991,1335.0788 C1011.6436,1331.1355 1012.2053,1326.0009 1018.6833,1323.9364 C1012.6672,1318.4315 1015.0543,1314.8082 1020.9099,1311.4144 C1014.4937,1302.791 1018.3244,1294.2879 1028.5,1292.2283 C1029.0394,1292.1554 1029.2218,1292.5891 1029.0393,1293.0125" fill="#FFFFFF" style="stroke:#CBD5E1;stroke-width:1;"/><text fill="#000000" font-family="Inter" font-size="14" font-weight="bold" lengthAdjust="spacing" textLength="135.0508" x="1027.9746" y="1310.7634">LLM / Embeddings</text></g><!--entity LegalSources--><g class="entity" data-qualified-name="Sources.LegalSources" data-source-line="21" id="ent0005"><rect fill="#F8FAFC" height="36.4883" rx="2.5" ry="2.5" style="stroke:#CBD5E1;stroke-width:0.5;" width="161.4355" x="118.78" y="267.4583"/><text fill="#000000" font-family="Inter" font-size="14" lengthAdjust="spacing" textLength="141.4355" x="128.78" y="290.9934">&#1053;&#1055;&#1040; &#1080; &#1087;&#1088;&#1086;&#1077;&#1082;&#1090;&#1099; &#1053;&#1055;&#1040;</text></g><!--entity SpeechSources--><g class="entity" data-qualified-name="Sources.SpeechSources" data-source-line="22" id="ent0006"><rect fill="#F8FAFC" height="52.9766" rx="2.5" ry="2.5" style="stroke:#CBD5E1;stroke-width:0.5;" width="144.8652" x="315.07" y="259.2183"/><text fill="#000000" font-family="Inter" font-size="14" lengthAdjust="spacing" textLength="87.0078" x="325.07" y="282.7534">&#1055;&#1088;&#1103;&#1084;&#1072;&#1103; &#1088;&#1077;&#1095;&#1100;</text><text fill="#000000" font-family="Inter" font-size="14" lengthAdjust="spacing" textLength="124.8652" x="325.07" y="299.2417">&#1080; &#1088;&#1077;&#1096;&#1077;&#1085;&#1080;&#1103; &#1074;&#1083;&#1072;&#1089;&#1090;&#1080;</text></g><!--entity FactSources--><g class="entity" data-qualified-name="Sources.FactSources" data-source-line="23" id="ent0007"><rect fill="#F8FAFC" height="52.9766" rx="2.5" ry="2.5" style="stroke:#CBD5E1;stroke-width:0.5;" width="171.6074" x="118.7" y="450.6583"/><text fill="#000000" font-family="Inter" font-size="14" lengthAdjust="spacing" textLength="101.8965" x="128.7" y="474.1934">&#1058;&#1088;&#1091;&#1076;, &#1073;&#1102;&#1076;&#1078;&#1077;&#1090;,</text><text fill="#000000" font-family="Inter" font-size="14" lengthAdjust="spacing" textLength="151.6074" x="128.7" y="490.6817">&#1087;&#1088;&#1086;&#1074;&#1077;&#1088;&#1082;&#1080;, &#1089;&#1090;&#1072;&#1090;&#1080;&#1089;&#1090;&#1080;&#1082;&#1072;</text></g><!--entity TopicConfig--><g class="entity" data-qualified-name="Logrus.TopicConfig" data-source-line="27" id="ent0009"><rect fill="#F8FAFC" height="69.4648" rx="2.5" ry="2.5" style="stroke:#CBD5E1;stroke-width:0.5;" width="229.166" x="748.92" y="250.9683"/><text fill="#000000" font-family="Inter" font-size="14" lengthAdjust="spacing" textLength="200.9561" x="758.92" y="274.5034">&#1058;&#1077;&#1084;&#1072;&#1090;&#1080;&#1095;&#1077;&#1089;&#1082;&#1072;&#1103; &#1082;&#1086;&#1085;&#1092;&#1080;&#1075;&#1091;&#1088;&#1072;&#1094;&#1080;&#1103;</text><text fill="#000000" font-family="Inter" font-size="14" lengthAdjust="spacing" textLength="209.166" x="758.92" y="290.9917">&#1080;&#1089;&#1090;&#1086;&#1095;&#1085;&#1080;&#1082;&#1080;, &#1089;&#1083;&#1086;&#1074;&#1072;&#1088;&#1080;, &#1087;&#1088;&#1072;&#1074;&#1080;&#1083;&#1072;,</text><text fill="#000000" font-family="Inter" font-size="14" lengthAdjust="spacing" textLength="97.2891" x="758.92" y="307.48">&#1074;&#1077;&#1089;&#1072; &#1080; &#1072;&#1083;&#1077;&#1088;&#1090;&#1099;</text></g><!--entity Ingestion--><g class="entity" data-qualified-name="Logrus.Ingestion" data-source-line="29" id="ent0010"><rect fill="#F8FAFC" height="52.9766" rx="2.5" ry="2.5" style="stroke:#CBD5E1;stroke-width:0.5;" width="136.4297" x="795.28" y="450.6583"/><text fill="#000000" font-family="Inter" font-size="14" lengthAdjust="spacing" textLength="93.2627" x="805.28" y="474.1934">&#1057;&#1073;&#1086;&#1088; &#1076;&#1072;&#1085;&#1085;&#1099;&#1093;</text><text fill="#000000" font-family="Inter" font-size="14" lengthAdjust="spacing" textLength="116.4297" x="805.28" y="490.6817">API / RSS / HTML</text></g><!--entity Normalization--><g class="entity" data-qualified-name="Logrus.Normalization" data-source-line="31" id="ent0011"><rect fill="#F8FAFC" height="52.9766" rx="2.5" ry="2.5" style="stroke:#CBD5E1;stroke-width:0.5;" width="287.2305" x="675.88" y="633.8483"/><text fill="#000000" font-family="Inter" font-size="14" lengthAdjust="spacing" textLength="102.3271" x="685.88" y="657.3834">&#1053;&#1086;&#1088;&#1084;&#1072;&#1083;&#1080;&#1079;&#1072;&#1094;&#1080;&#1103;</text><text fill="#000000" font-family="Inter" font-size="14" lengthAdjust="spacing" textLength="267.2305" x="685.88" y="673.8717">&#1089;&#1099;&#1088;&#1086;&#1081; &#1084;&#1072;&#1090;&#1077;&#1088;&#1080;&#1072;&#1083; -&gt; &#1077;&#1076;&#1080;&#1085;&#1099;&#1081; &#1076;&#1086;&#1082;&#1091;&#1084;&#1077;&#1085;&#1090;</text></g><!--entity EventLayer--><g class="entity" data-qualified-name="Logrus.EventLayer" data-source-line="33" id="ent0012"><rect fill="#F8FAFC" height="69.4648" rx="2.5" ry="2.5" style="stroke:#CBD5E1;stroke-width:0.5;" width="212.9854" x="793.01" y="780.8283"/><text fill="#000000" font-family="Inter" font-size="14" lengthAdjust="spacing" textLength="144.0742" x="803.01" y="804.3634">&#1048;&#1079;&#1074;&#1083;&#1077;&#1095;&#1077;&#1085;&#1080;&#1077; &#1089;&#1086;&#1073;&#1099;&#1090;&#1080;&#1081;</text><text fill="#000000" font-family="Inter" font-size="14" lengthAdjust="spacing" textLength="192.9854" x="803.01" y="820.8517">&#1095;&#1090;&#1086; &#1087;&#1088;&#1086;&#1080;&#1079;&#1086;&#1096;&#1083;&#1086;, &#1075;&#1076;&#1077;, &#1082;&#1086;&#1075;&#1076;&#1072;,</text><text fill="#000000" font-family="Inter" font-size="14" lengthAdjust="spacing" textLength="72.8779" x="803.01" y="837.34">&#1082;&#1090;&#1086; &#1089;&#1074;&#1103;&#1079;&#1072;&#1085;</text></g><!--entity RelationLayer--><g class="entity" data-qualified-name="Logrus.RelationLayer" data-source-line="35" id="ent0013"><rect fill="#F8FAFC" height="85.9531" rx="2.5" ry="2.5" style="stroke:#CBD5E1;stroke-width:0.5;" width="192.7168" x="567.14" y="434.1683"/><text fill="#000000" font-family="Inter" font-size="14" lengthAdjust="spacing" textLength="133.0957" x="577.14" y="457.7034">&#1055;&#1086;&#1089;&#1090;&#1088;&#1086;&#1077;&#1085;&#1080;&#1077; &#1089;&#1074;&#1103;&#1079;&#1077;&#1081;</text><text fill="#000000" font-family="Inter" font-size="14" lengthAdjust="spacing" textLength="135.0576" x="577.14" y="474.1917">&#1092;&#1072;&#1082;&#1090;&#1080;&#1095;&#1077;&#1089;&#1082;&#1080;&#1077; &#1089;&#1074;&#1103;&#1079;&#1080;,</text><text fill="#000000" font-family="Inter" font-size="14" lengthAdjust="spacing" textLength="141.2373" x="577.14" y="490.68">&#1090;&#1077;&#1084;&#1072;&#1090;&#1080;&#1095;&#1077;&#1089;&#1082;&#1080;&#1077; &#1089;&#1074;&#1103;&#1079;&#1080;,</text><text fill="#000000" font-family="Inter" font-size="14" lengthAdjust="spacing" textLength="172.7168" x="577.14" y="507.1683">&#1072;&#1085;&#1072;&#1083;&#1080;&#1090;&#1080;&#1095;&#1077;&#1089;&#1082;&#1080;&#1077; &#1075;&#1080;&#1087;&#1086;&#1090;&#1077;&#1079;&#1099;</text></g><!--entity KnowledgeStore--><g class="entity" data-qualified-name="Logrus.KnowledgeStore" data-source-line="37" id="ent0014"><path d="M591.68,954.2983 C591.68,944.2983 713.5023,944.2983 713.5023,944.2983 C713.5023,944.2983 835.3245,944.2983 835.3245,954.2983 L835.3245,1012.7631 C835.3245,1022.7631 713.5023,1022.7631 713.5023,1022.7631 C713.5023,1022.7631 591.68,1022.7631 591.68,1012.7631 L591.68,954.2983" fill="#F8FAFC" style="stroke:#CBD5E1;stroke-width:0.5;"/><path d="M591.68,954.2983 C591.68,964.2983 713.5023,964.2983 713.5023,964.2983 C713.5023,964.2983 835.3245,964.2983 835.3245,954.2983" fill="none" style="stroke:#CBD5E1;stroke-width:0.5;"/><text fill="#000000" font-family="Inter" font-size="14" lengthAdjust="spacing" textLength="133.8408" x="601.68" y="981.8334">&#1061;&#1088;&#1072;&#1085;&#1080;&#1083;&#1080;&#1097;&#1077; &#1079;&#1085;&#1072;&#1085;&#1080;&#1081;</text><text fill="#000000" font-family="Inter" font-size="14" lengthAdjust="spacing" textLength="223.6445" x="601.68" y="998.3217">&#1076;&#1086;&#1082;&#1091;&#1084;&#1077;&#1085;&#1090;&#1099;, &#1089;&#1086;&#1073;&#1099;&#1090;&#1080;&#1103;, &#1089;&#1091;&#1097;&#1085;&#1086;&#1089;&#1090;&#1080;,</text><text fill="#000000" font-family="Inter" font-size="14" lengthAdjust="spacing" textLength="179.04" x="601.68" y="1014.81">&#1089;&#1074;&#1103;&#1079;&#1080;, evidence, &#1075;&#1080;&#1087;&#1086;&#1090;&#1077;&#1079;&#1099;</text></g><!--entity Analytics--><g class="entity" data-qualified-name="Logrus.Analytics" data-source-line="39" id="ent0015"><rect fill="#F8FAFC" height="69.4648" rx="2.5" ry="2.5" style="stroke:#CBD5E1;stroke-width:0.5;" width="218.4746" x="822.26" y="1116.7583"/><text fill="#000000" font-family="Inter" font-size="14" lengthAdjust="spacing" textLength="143.7529" x="832.26" y="1140.2934">&#1040;&#1085;&#1072;&#1083;&#1080;&#1090;&#1080;&#1095;&#1077;&#1089;&#1082;&#1080;&#1081; &#1089;&#1083;&#1086;&#1081;</text><text fill="#000000" font-family="Inter" font-size="14" lengthAdjust="spacing" textLength="143.1582" x="832.26" y="1156.7817">&#1089;&#1074;&#1086;&#1076;&#1082;&#1080;, &#1086;&#1073;&#1098;&#1103;&#1089;&#1085;&#1077;&#1085;&#1080;&#1103;,</text><text fill="#000000" font-family="Inter" font-size="14" lengthAdjust="spacing" textLength="198.4746" x="832.26" y="1173.27">&#1082;&#1086;&#1085;&#1090;&#1088;&#1072;&#1088;&#1075;&#1091;&#1084;&#1077;&#1085;&#1090;&#1099;, confidence</text></g><!--entity ProductUI--><g class="entity" data-qualified-name="Logrus.ProductUI" data-source-line="41" id="ent0016"><rect fill="#F8FAFC" height="69.4648" rx="2.5" ry="2.5" style="stroke:#CBD5E1;stroke-width:0.5;" width="216.2393" x="567.38" y="1116.7583"/><text fill="#000000" font-family="Inter" font-size="14" lengthAdjust="spacing" textLength="174.3027" x="577.38" y="1140.2934">&#1055;&#1088;&#1086;&#1076;&#1091;&#1082;&#1090;&#1086;&#1074;&#1099;&#1081; &#1080;&#1085;&#1090;&#1077;&#1088;&#1092;&#1077;&#1081;&#1089;</text><text fill="#000000" font-family="Inter" font-size="14" lengthAdjust="spacing" textLength="185.9512" x="577.38" y="1156.7817">&#1089;&#1074;&#1086;&#1076;&#1082;&#1072;, &#1082;&#1072;&#1088;&#1090;&#1086;&#1095;&#1082;&#1072; &#1089;&#1086;&#1073;&#1099;&#1090;&#1080;&#1103;,</text><text fill="#000000" font-family="Inter" font-size="14" lengthAdjust="spacing" textLength="196.2393" x="577.38" y="1173.27">&#1086;&#1089;&#1085;&#1086;&#1074;&#1072;&#1085;&#1080;&#1103;, &#1087;&#1077;&#1088;&#1074;&#1086;&#1080;&#1089;&#1090;&#1086;&#1095;&#1085;&#1080;&#1082;&#1080;</text></g><!--entity AIModels--><g class="entity" data-qualified-name="AI.AIModels" data-source-line="45" id="ent0018"><rect fill="#F8FAFC" height="69.4648" rx="2.5" ry="2.5" style="stroke:#CBD5E1;stroke-width:0.5;" width="131.8496" x="1029.57" y="1319.2283"/><text fill="#000000" font-family="Inter" font-size="14" lengthAdjust="spacing" textLength="85.374" x="1039.57" y="1342.7634">&#1048;&#1079;&#1074;&#1083;&#1077;&#1095;&#1077;&#1085;&#1080;&#1077;,</text><text fill="#000000" font-family="Inter" font-size="14" lengthAdjust="spacing" textLength="111.8496" x="1039.57" y="1359.2517">&#1082;&#1083;&#1072;&#1089;&#1089;&#1080;&#1092;&#1080;&#1082;&#1072;&#1094;&#1080;&#1103;,</text><text fill="#000000" font-family="Inter" font-size="14" lengthAdjust="spacing" textLength="81.1904" x="1039.57" y="1375.74">&#1086;&#1073;&#1098;&#1103;&#1089;&#1085;&#1077;&#1085;&#1080;&#1077;</text></g><!--entity User--><g class="entity" data-qualified-name="User" data-source-line="17" id="ent0002"><ellipse cx="675.4984" cy="1315.9683" fill="#F1F1F1" rx="8" ry="8" style="stroke:#181818;stroke-width:0.5;"/><path d="M675.4984,1323.9683 L675.4984,1350.9683 M662.4984,1331.9683 L688.4984,1331.9683 M675.4984,1350.9683 L662.4984,1365.9683 M675.4984,1350.9683 L688.4984,1365.9683" fill="none" style="stroke:#181818;stroke-width:0.5;"/><text fill="#000000" font-family="Inter" font-size="14" lengthAdjust="spacing" textLength="94.4658" x="569.89" y="1381.0034">&#1055;&#1086;&#1083;&#1100;&#1079;&#1086;&#1074;&#1072;&#1090;&#1077;&#1083;&#1100;</text><text fill="#000000" font-family="Inter" font-size="14" lengthAdjust="spacing" textLength="211.2168" x="569.89" y="1397.4917">GR / Legal / Compliance / Risk</text></g><!--entity Analyst--><g class="entity" data-qualified-name="Analyst" data-source-line="18" id="ent0003"><ellipse cx="81.4995" cy="51.4883" fill="#F1F1F1" rx="8" ry="8" style="stroke:#181818;stroke-width:0.5;"/><path d="M81.4995,59.4883 L81.4995,86.4883 M68.4995,67.4883 L94.4995,67.4883 M81.4995,86.4883 L68.4995,101.4883 M81.4995,86.4883 L94.4995,101.4883" fill="none" style="stroke:#181818;stroke-width:0.5;"/><text fill="#000000" font-family="Inter" font-size="14" lengthAdjust="spacing" textLength="66.7119" x="6" y="116.5234">&#1040;&#1085;&#1072;&#1083;&#1080;&#1090;&#1080;&#1082;</text><text fill="#000000" font-family="Inter" font-size="14" lengthAdjust="spacing" textLength="150.999" x="6" y="133.0117">&#1088;&#1091;&#1095;&#1085;&#1072;&#1103; &#1087;&#1088;&#1086;&#1074;&#1077;&#1088;&#1082;&#1072; MVP</text></g><g class="entity" data-qualified-name="GMN38" data-source-line="73" id="ent0039"><path d="M1164.83,414.4383 L1164.83,539.8563 L1562.1757,539.8563 L1562.1757,424.4383 L1552.1757,414.4383 L1164.83,414.4383" fill="#FEFFDD" style="stroke:#181818;stroke-width:0.5;"/><path d="M1552.1757,414.4383 L1552.1757,424.4383 L1562.1757,424.4383 L1552.1757,414.4383" fill="#FEFFDD" style="stroke:#181818;stroke-width:1;"/><text fill="#000000" font-family="Inter" font-size="14" lengthAdjust="spacing" textLength="47.7695" x="1170.83" y="432.9734">&#1042;&#1072;&#1078;&#1085;&#1086;:</text><text fill="#000000" font-family="Inter" font-size="14" lengthAdjust="spacing" textLength="376.3457" x="1170.83" y="449.4617">&#1092;&#1072;&#1082;&#1090;&#1080;&#1095;&#1077;&#1089;&#1082;&#1072;&#1103; &#1089;&#1074;&#1103;&#1079;&#1100; != &#1090;&#1077;&#1084;&#1072;&#1090;&#1080;&#1095;&#1077;&#1089;&#1082;&#1072;&#1103; &#1089;&#1074;&#1103;&#1079;&#1100; != &#1075;&#1080;&#1087;&#1086;&#1090;&#1077;&#1079;&#1072;.</text><text fill="#000000" font-family="Inter" font-size="14" lengthAdjust="spacing" textLength="4.4297" x="1170.83" y="465.95">&#160;</text><text fill="#000000" font-family="Inter" font-size="14" lengthAdjust="spacing" textLength="218.21" x="1170.83" y="482.4383">&#1060;&#1072;&#1082;&#1090;&#1080;&#1095;&#1077;&#1089;&#1082;&#1072;&#1103; &#1089;&#1074;&#1103;&#1079;&#1100; &#1087;&#1088;&#1086;&#1074;&#1077;&#1088;&#1103;&#1077;&#1084;&#1072;.</text><text fill="#000000" font-family="Inter" font-size="14" lengthAdjust="spacing" textLength="222.7217" x="1170.83" y="498.9266">&#1058;&#1077;&#1084;&#1072;&#1090;&#1080;&#1095;&#1077;&#1089;&#1082;&#1072;&#1103; &#1089;&#1074;&#1103;&#1079;&#1100; &#1082;&#1086;&#1085;&#1090;&#1077;&#1082;&#1089;&#1090;&#1085;&#1072;.</text><text fill="#000000" font-family="Inter" font-size="14" lengthAdjust="spacing" textLength="204.3467" x="1170.83" y="515.4148">&#1043;&#1080;&#1087;&#1086;&#1090;&#1077;&#1079;&#1072; &#1090;&#1088;&#1077;&#1073;&#1091;&#1077;&#1090; &#1086;&#1089;&#1085;&#1086;&#1074;&#1072;&#1085;&#1080;&#1081;,</text><text fill="#000000" font-family="Inter" font-size="14" lengthAdjust="spacing" textLength="217.499" x="1170.83" y="531.9031">&#1082;&#1086;&#1085;&#1090;&#1088;&#1072;&#1088;&#1075;&#1091;&#1084;&#1077;&#1085;&#1090;&#1086;&#1074; &#1080; confidence.</text></g><g class="entity" data-qualified-name="GMN41" data-source-line="83" id="ent0042"><path d="M1597.25,439.1683 L1597.25,515.1214 L2017.7422,515.1214 L2017.7422,449.1683 L2007.7422,439.1683 L1597.25,439.1683" fill="#FEFFDD" style="stroke:#181818;stroke-width:0.5;"/><path d="M2007.7422,439.1683 L2007.7422,449.1683 L2017.7422,449.1683 L2007.7422,439.1683" fill="#FEFFDD" style="stroke:#181818;stroke-width:1;"/><text fill="#000000" font-family="Inter" font-size="14" lengthAdjust="spacing" textLength="399.4922" x="1603.25" y="457.7034">MVP-&#1092;&#1086;&#1082;&#1091;&#1089;: &#1084;&#1086;&#1073;&#1080;&#1083;&#1080;&#1079;&#1072;&#1094;&#1080;&#1086;&#1085;&#1085;&#1099;&#1077; &#1080; &#1074;&#1086;&#1077;&#1085;&#1085;&#1086;-&#1101;&#1082;&#1086;&#1085;&#1086;&#1084;&#1080;&#1095;&#1077;&#1089;&#1082;&#1080;&#1077;</text><text fill="#000000" font-family="Inter" font-size="14" lengthAdjust="spacing" textLength="360.0078" x="1603.25" y="474.1917">&#1088;&#1080;&#1089;&#1082;&#1080; &#1076;&#1083;&#1103; &#1073;&#1080;&#1079;&#1085;&#1077;&#1089;&#1072;. &#1040;&#1088;&#1093;&#1080;&#1090;&#1077;&#1082;&#1090;&#1091;&#1088;&#1072; &#1076;&#1086;&#1083;&#1078;&#1085;&#1072; &#1087;&#1086;&#1079;&#1074;&#1086;&#1083;&#1103;&#1090;&#1100;</text><text fill="#000000" font-family="Inter" font-size="14" lengthAdjust="spacing" textLength="389.375" x="1603.25" y="490.68">&#1076;&#1086;&#1073;&#1072;&#1074;&#1080;&#1090;&#1100; &#1085;&#1086;&#1074;&#1099;&#1077; &#1090;&#1077;&#1084;&#1099; &#1095;&#1077;&#1088;&#1077;&#1079; &#1082;&#1086;&#1085;&#1092;&#1080;&#1075;&#1091;&#1088;&#1072;&#1094;&#1080;&#1102;, &#1080;&#1089;&#1090;&#1086;&#1095;&#1085;&#1080;&#1082;&#1080;,</text><text fill="#000000" font-family="Inter" font-size="14" lengthAdjust="spacing" textLength="332.7119" x="1603.25" y="507.1683">&#1089;&#1083;&#1086;&#1074;&#1072;&#1088;&#1080; &#1080; &#1087;&#1072;&#1090;&#1090;&#1077;&#1088;&#1085;&#1099;, &#1072; &#1085;&#1077; &#1087;&#1077;&#1088;&#1077;&#1087;&#1080;&#1089;&#1099;&#1074;&#1072;&#1085;&#1080;&#1077; &#1103;&#1076;&#1088;&#1072;.</text></g><!--link Sources to Ingestion--><g class="link" data-entity-1="ent0004" data-entity-2="ent0010" data-link-type="dependency" data-source-line="48" id="lnk19"><path d="M503.564,308.857 C503.6796,309.1334 503.7965,309.4116 503.9146,309.6915 C504.1509,310.2512 504.3922,310.8177 504.6387,311.3905 C506.6102,315.9732 508.9075,320.9617 511.5375,326.147 C522.0575,346.8883 537.9,370.7783 559.5,384.4383 C642.16,436.7083 686.66,378.1983 777.5,414.4383 C798.49,422.8083 814.5197,433.5869 830.3297,446.4769" fill="none" id="Sources-to-Ingestion" style="stroke:#475569;stroke-width:1;"/><polygon fill="#475569" points="834.98,450.2683,830.5322,441.481,831.1048,447.1088,825.477,447.6814,834.98,450.2683" style="stroke:#475569;stroke-width:1;"/><text fill="#000000" font-family="Inter" font-size="14" lengthAdjust="spacing" textLength="124.1953" x="560.5" y="364.9734">&#1086;&#1090;&#1082;&#1088;&#1099;&#1090;&#1099;&#1077; &#1076;&#1072;&#1085;&#1085;&#1099;&#1077;</text><text fill="#000000" font-family="Inter" font-size="14" lengthAdjust="spacing" textLength="97.1318" x="574.0317" y="381.4617">&#1080; &#1087;&#1091;&#1073;&#1083;&#1080;&#1082;&#1072;&#1094;&#1080;&#1080;</text></g><!--link TopicConfig to Ingestion--><g class="link" data-entity-1="ent0009" data-entity-2="ent0010" data-link-type="dependency" data-source-line="49" id="lnk20"><path d="M863.5,320.5683 C863.5,357.7083 863.5,410.5083 863.5,444.1783" fill="none" id="TopicConfig-to-Ingestion" style="stroke:#475569;stroke-width:1;"/><polygon fill="#475569" points="863.5,450.1783,867.5,441.1783,863.5,445.1783,859.5,441.1783,863.5,450.1783" style="stroke:#475569;stroke-width:1;"/><text fill="#000000" font-family="Inter" font-size="14" lengthAdjust="spacing" textLength="90.6309" x="864.5" y="372.9734">&#1095;&#1090;&#1086; &#1089;&#1086;&#1073;&#1080;&#1088;&#1072;&#1090;&#1100;</text></g><!--link TopicConfig to EventLayer--><g class="link" data-entity-1="ent0009" data-entity-2="ent0012" data-link-type="dependency" data-source-line="50" id="lnk21"><path d="M935.97,320.7183 C946.62,328.9183 956.14,338.7683 962.5,350.4383 C982.18,386.5083 1023.39,393.9583 949.5,543.6283 C941.81,559.2083 927.55,553.9683 920.5,569.8483 C914.37,583.6683 912.56,590.9983 920.5,603.8483 C936.17,629.2183 964.83,608.4883 980.5,633.8483 C992.88,653.8783 989.69,665.1483 980.5,686.8283 C973.02,704.4783 959.42,700.4183 949.5,716.8283 C941.35,730.3083 945.97,736.4683 939.5,750.8283 C934.99,760.8383 932.3259,766.054 926.4859,775.374" fill="none" id="TopicConfig-to-EventLayer" style="stroke:#475569;stroke-width:1;"/><polygon fill="#475569" points="923.3,780.4583,931.4684,774.9557,925.9549,776.2214,924.6893,770.7079,923.3,780.4583" style="stroke:#475569;stroke-width:1;"/><text fill="#000000" font-family="Inter" font-size="14" lengthAdjust="spacing" textLength="176.0186" x="921.5" y="592.3834">&#1095;&#1090;&#1086; &#1089;&#1095;&#1080;&#1090;&#1072;&#1090;&#1100; &#1088;&#1077;&#1083;&#1077;&#1074;&#1072;&#1085;&#1090;&#1085;&#1099;&#1084;</text></g><!--link TopicConfig to RelationLayer--><g class="link" data-entity-1="ent0009" data-entity-2="ent0013" data-link-type="dependency" data-source-line="51" id="lnk22"><path d="M758.37,320.8783 C743.43,328.9183 729.2,338.6683 717.5,350.4383 C694.89,373.1783 682.8229,401.138 674.8429,427.928" fill="none" id="TopicConfig-to-RelationLayer" style="stroke:#475569;stroke-width:1;"/><polygon fill="#475569" points="673.13,433.6783,679.5328,426.1947,674.5574,428.8864,671.8657,423.9109,673.13,433.6783" style="stroke:#475569;stroke-width:1;"/><text fill="#000000" font-family="Inter" font-size="14" lengthAdjust="spacing" textLength="82.0859" x="745.8608" y="364.9734">&#1082;&#1072;&#1082; &#1089;&#1090;&#1088;&#1086;&#1080;&#1090;&#1100;</text><text fill="#000000" font-family="Inter" font-size="14" lengthAdjust="spacing" textLength="136.8076" x="718.5" y="381.4617">&#1090;&#1077;&#1084;&#1072;&#1090;&#1080;&#1095;&#1077;&#1089;&#1082;&#1080;&#1077; &#1089;&#1074;&#1103;&#1079;&#1080;</text></g><!--link TopicConfig to Analytics--><g class="link" data-entity-1="ent0009" data-entity-2="ent0015" data-link-type="dependency" data-source-line="52" id="lnk23"><path d="M942.84,320.8183 C957.08,329.1683 971.01,339.0483 982.5,350.4383 C1061.44,428.6883 1074.98,462.1683 1102.5,569.8483 C1106.24,584.4883 1103.62,588.7783 1102.5,603.8483 C1098.49,657.9583 1059.93,1041.1883 1030.5,1086.7583 C1023.07,1098.2683 1017.5752,1104.5422 1006.3852,1112.8122" fill="none" id="TopicConfig-to-Analytics" style="stroke:#475569;stroke-width:1;"/><polygon fill="#475569" points="1001.56,1116.3783,1011.1753,1114.2459,1005.581,1113.4065,1006.4205,1107.8123,1001.56,1116.3783" style="stroke:#475569;stroke-width:1;"/><text fill="#000000" font-family="Inter" font-size="14" lengthAdjust="spacing" textLength="121.4883" x="1092.33" y="731.3634">&#1082;&#1072;&#1082; &#1092;&#1086;&#1088;&#1084;&#1080;&#1088;&#1086;&#1074;&#1072;&#1090;&#1100;</text><text fill="#000000" font-family="Inter" font-size="14" lengthAdjust="spacing" textLength="116.4023" x="1094.873" y="747.8517">&#1089;&#1074;&#1086;&#1076;&#1082;&#1080; &#1080; &#1072;&#1083;&#1077;&#1088;&#1090;&#1099;</text></g><!--link Ingestion to Normalization--><g class="link" data-entity-1="ent0010" data-entity-2="ent0011" data-link-type="dependency" data-source-line="54" id="lnk24"><path d="M857.2,504.1083 C848.83,538.5483 835.5661,593.1778 827.2061,627.5978" fill="none" id="Ingestion-to-Normalization" style="stroke:#475569;stroke-width:1;"/><polygon fill="#475569" points="825.79,633.4283,831.8012,625.6266,826.9701,628.5695,824.0272,623.7385,825.79,633.4283" style="stroke:#475569;stroke-width:1;"/></g><!--link Normalization to EventLayer--><g class="link" data-entity-1="ent0011" data-entity-2="ent0012" data-link-type="dependency" data-source-line="55" id="lnk25"><path d="M900.95,687.2683 C913.5,694.8183 924.81,704.4883 932.5,716.8283 C944.72,736.4383 939.2529,755.9096 927.8429,775.5596" fill="none" id="Normalization-to-EventLayer" style="stroke:#475569;stroke-width:1;"/><polygon fill="#475569" points="924.83,780.7483,932.8084,774.9738,927.3407,776.4244,925.8902,770.9567,924.83,780.7483" style="stroke:#475569;stroke-width:1;"/></g><!--link EventLayer to KnowledgeStore--><g class="link" data-entity-1="ent0012" data-entity-2="ent0014" data-link-type="dependency" data-source-line="56" id="lnk26"><path d="M861.41,850.5483 C831.01,877.6683 792.8961,911.6727 761.2261,939.9427" fill="none" id="EventLayer-to-KnowledgeStore" style="stroke:#475569;stroke-width:1;"/><polygon fill="#475569" points="756.75,943.9383,766.1279,940.929,760.4801,940.6086,760.8004,934.9609,756.75,943.9383" style="stroke:#475569;stroke-width:1;"/><text fill="#000000" font-family="Inter" font-size="14" lengthAdjust="spacing" textLength="61.6738" x="848.8138" y="894.8334">&#1089;&#1086;&#1073;&#1099;&#1090;&#1080;&#1103;,</text><text fill="#000000" font-family="Inter" font-size="14" lengthAdjust="spacing" textLength="110.9814" x="824.16" y="911.3217">&#1089;&#1091;&#1097;&#1085;&#1086;&#1089;&#1090;&#1080;, &#1090;&#1077;&#1084;&#1099;</text></g><!--link EventLayer to AIModels--><g class="link" data-entity-1="ent0012" data-entity-2="ent0018" data-link-type="dependency" data-source-line="57" id="lnk27"><path d="M928.28,850.7883 C963.39,894.5683 1021.63,974.1783 1050.5,1052.7583 C1084.39,1145.0183 1092.5626,1256.1822 1094.6226,1312.9922" fill="none" id="EventLayer-to-AIModels" style="stroke:#475569;stroke-width:1;"/><polygon fill="#475569" points="1094.84,1318.9883,1098.5112,1309.8492,1094.6588,1313.9916,1090.5165,1310.1391,1094.84,1318.9883" style="stroke:#475569;stroke-width:1;"/><text fill="#000000" font-family="Inter" font-size="14" lengthAdjust="spacing" textLength="79.3447" x="1091.9575" y="1067.2934">&#1080;&#1079;&#1074;&#1083;&#1077;&#1095;&#1077;&#1085;&#1080;&#1077;</text><text fill="#000000" font-family="Inter" font-size="14" lengthAdjust="spacing" textLength="138.6396" x="1062.31" y="1083.7817">&#1080;&#1079; &#1089;&#1083;&#1086;&#1078;&#1085;&#1099;&#1093; &#1090;&#1077;&#1082;&#1089;&#1090;&#1086;&#1074;</text></g><!--link KnowledgeStore to RelationLayer--><g class="link" data-entity-1="ent0014" data-entity-2="ent0013" data-link-type="dependency" data-source-line="59" id="lnk28"><path d="M731.3,943.8583 C753.92,888.3583 784.71,785.2583 737.5,716.8283 C716.17,685.9183 679.83,717.7383 658.5,686.8283 C645.13,667.4483 658.12,657.3983 658.5,633.8483 C659.12,595.4483 660.364,557.734 661.544,526.424" fill="none" id="KnowledgeStore-to-RelationLayer" style="stroke:#475569;stroke-width:1;"/><polygon fill="#475569" points="661.77,520.4283,657.4339,529.2713,661.5817,525.4247,665.4282,529.5725,661.77,520.4283" style="stroke:#475569;stroke-width:1;"/><text fill="#000000" font-family="Inter" font-size="14" lengthAdjust="spacing" textLength="61.6738" x="800.7688" y="731.3634">&#1089;&#1086;&#1073;&#1099;&#1090;&#1080;&#1103;,</text><text fill="#000000" font-family="Inter" font-size="14" lengthAdjust="spacing" textLength="153.1113" x="755.05" y="747.8517">&#1089;&#1091;&#1097;&#1085;&#1086;&#1089;&#1090;&#1080;, &#1076;&#1086;&#1082;&#1091;&#1084;&#1077;&#1085;&#1090;&#1099;</text></g><!--link RelationLayer to KnowledgeStore--><g class="link" data-entity-1="ent0013" data-entity-2="ent0014" data-link-type="dependency" data-source-line="61" id="lnk30"><path d="M640.01,520.5983 C613.34,574.1783 575.92,669.2283 595.5,750.8283 C613.04,823.9183 654.3846,894.9243 683.4546,939.1543" fill="none" id="RelationLayer-to-KnowledgeStore" style="stroke:#475569;stroke-width:1;"/><polygon fill="#475569" points="686.75,944.1683,685.1495,934.4503,684.0038,939.99,678.4642,938.8442,686.75,944.1683" style="stroke:#475569;stroke-width:1;"/><text fill="#000000" font-family="Inter" font-size="14" lengthAdjust="spacing" textLength="41.7607" x="642.0444" y="731.3634">&#1089;&#1074;&#1103;&#1079;&#1080;,</text><text fill="#000000" font-family="Inter" font-size="14" lengthAdjust="spacing" textLength="132.8496" x="596.5" y="747.8517">evidence, &#1075;&#1080;&#1087;&#1086;&#1090;&#1077;&#1079;&#1099;</text></g><!--link RelationLayer to AIModels--><g class="link" data-entity-1="ent0013" data-entity-2="ent0018" data-link-type="dependency" data-source-line="60" id="lnk29"><path d="M726.03,520.6083 C742.16,529.6983 759.95,538.1983 777.5,543.6283 C917.61,587.0483 966.62,525.6883 1106.5,569.8483 C1181.26,593.4583 1258.5,580.9483 1258.5,659.3383 C1258.5,659.3383 1258.5,659.3383 1258.5,1152.4883 C1258.5,1223.5883 1200.8384,1279.9129 1153.2384,1315.2329" fill="none" id="RelationLayer-to-AIModels" style="stroke:#475569;stroke-width:1;"/><polygon fill="#475569" points="1148.42,1318.8083,1158.0312,1316.6575,1152.4353,1315.8288,1153.264,1310.233,1148.42,1318.8083" style="stroke:#475569;stroke-width:1;"/><text fill="#000000" font-family="Inter" font-size="14" lengthAdjust="spacing" textLength="130.751" x="1259.5" y="894.8334">&#1086;&#1073;&#1098;&#1103;&#1089;&#1085;&#1077;&#1085;&#1080;&#1077; &#1089;&#1074;&#1103;&#1079;&#1077;&#1081;</text><text fill="#000000" font-family="Inter" font-size="14" lengthAdjust="spacing" textLength="67.7031" x="1291.0239" y="911.3217">&#1080; &#1075;&#1080;&#1087;&#1086;&#1090;&#1077;&#1079;</text></g><!--link KnowledgeStore to Analytics--><g class="link" data-entity-1="ent0014" data-entity-2="ent0015" data-link-type="dependency" data-source-line="63" id="lnk31"><path d="M835.43,1022.3183 C851.7,1030.6883 867.3,1040.7383 880.5,1052.7583 C899.32,1069.8983 910.1518,1090.0254 918.3218,1110.7754" fill="none" id="KnowledgeStore-to-Analytics" style="stroke:#475569;stroke-width:1;"/><polygon fill="#475569" points="920.52,1116.3583,920.9447,1106.5186,918.6882,1111.7059,913.5009,1109.4495,920.52,1116.3583" style="stroke:#475569;stroke-width:1;"/><text fill="#000000" font-family="Inter" font-size="14" lengthAdjust="spacing" textLength="114.5635" x="907.03" y="1067.2934">&#1089;&#1086;&#1073;&#1099;&#1090;&#1080;&#1103; + &#1089;&#1074;&#1103;&#1079;&#1080;</text><text fill="#000000" font-family="Inter" font-size="14" lengthAdjust="spacing" textLength="80.1855" x="924.219" y="1083.7817">+ &#1075;&#1080;&#1087;&#1086;&#1090;&#1077;&#1079;&#1099;</text></g><!--link Analytics to KnowledgeStore--><g class="link" data-entity-1="ent0015" data-entity-2="ent0014" data-link-type="dependency" data-source-line="65" id="lnk33"><path d="M821.78,1120.9283 C765.59,1105.5283 708.47,1089.3683 706.5,1086.7583 C692.98,1068.8783 693.0722,1049.6732 698.0622,1028.8432" fill="none" id="Analytics-to-KnowledgeStore" style="stroke:#475569;stroke-width:1;"/><polygon fill="#475569" points="699.46,1023.0083,693.4734,1030.8288,698.2952,1027.8707,701.2532,1032.6925,699.46,1023.0083" style="stroke:#475569;stroke-width:1;"/><text fill="#000000" font-family="Inter" font-size="14" lengthAdjust="spacing" textLength="164.0693" x="707.5" y="1067.2934">&#1072;&#1085;&#1072;&#1083;&#1080;&#1090;&#1080;&#1095;&#1077;&#1089;&#1082;&#1080;&#1077; &#1079;&#1072;&#1084;&#1077;&#1090;&#1082;&#1080;</text><text fill="#000000" font-family="Inter" font-size="14" lengthAdjust="spacing" textLength="62.3643" x="758.3525" y="1083.7817">&#1080; &#1089;&#1074;&#1086;&#1076;&#1082;&#1080;</text></g><!--link Analytics to AIModels--><g class="link" data-entity-1="ent0015" data-entity-2="ent0018" data-link-type="dependency" data-source-line="64" id="lnk32"><path d="M926.76,1186.6383 C925.13,1211.2583 926.8,1244.2483 942.5,1268.2283 C962.55,1298.8283 992.086,1317.08 1023.596,1330.28" fill="none" id="Analytics-to-AIModels" style="stroke:#475569;stroke-width:1;"/><polygon fill="#475569" points="1029.13,1332.5983,1022.3745,1325.4315,1024.5183,1330.6664,1019.2834,1332.8102,1029.13,1332.5983" style="stroke:#475569;stroke-width:1;"/><text fill="#000000" font-family="Inter" font-size="14" lengthAdjust="spacing" textLength="103.25" x="954.5742" y="1248.7634">&#1092;&#1086;&#1088;&#1084;&#1091;&#1083;&#1080;&#1088;&#1086;&#1074;&#1082;&#1072;</text><text fill="#000000" font-family="Inter" font-size="14" lengthAdjust="spacing" textLength="125.3984" x="943.5" y="1265.2517">&#1089;&#1074;&#1086;&#1076;&#1086;&#1082; &#1080; &#1074;&#1099;&#1074;&#1086;&#1076;&#1086;&#1074;</text></g><!--link KnowledgeStore to ProductUI--><g class="link" data-entity-1="ent0014" data-entity-2="ent0016" data-link-type="dependency" data-source-line="67" id="lnk34"><path d="M689.28,1022.9483 C684.48,1032.3583 680.11,1042.6483 677.5,1052.7583 C672.15,1073.4583 671.3281,1091.4636 672.1281,1110.5036" fill="none" id="KnowledgeStore-to-ProductUI" style="stroke:#475569;stroke-width:1;"/><polygon fill="#475569" points="672.38,1116.4983,675.9987,1107.3383,672.1701,1111.5027,668.0057,1107.6741,672.38,1116.4983" style="stroke:#475569;stroke-width:1;"/></g><!--link ProductUI to User--><g class="link" data-entity-1="ent0016" data-entity-2="ent0002" data-link-type="dependency" data-source-line="68" id="lnk35"><path d="M675.5,1186.4983 C675.5,1219.6783 675.5,1264.3683 675.5,1301.0983" fill="none" id="ProductUI-to-User" style="stroke:#475569;stroke-width:1;"/><polygon fill="#475569" points="675.5,1307.0983,679.5,1298.0983,675.5,1302.0983,671.5,1298.0983,675.5,1307.0983" style="stroke:#475569;stroke-width:1;"/><text fill="#000000" font-family="Inter" font-size="14" lengthAdjust="spacing" textLength="167.4121" x="676.5" y="1248.7634">&#1087;&#1088;&#1086;&#1074;&#1077;&#1088;&#1103;&#1077;&#1084;&#1072;&#1103; &#1072;&#1085;&#1072;&#1083;&#1080;&#1090;&#1080;&#1082;&#1072;</text><text fill="#000000" font-family="Inter" font-size="14" lengthAdjust="spacing" textLength="143.8008" x="688.3057" y="1265.2517">&#1089; &#1087;&#1077;&#1088;&#1074;&#1086;&#1080;&#1089;&#1090;&#1086;&#1095;&#1085;&#1080;&#1082;&#1072;&#1084;&#1080;</text></g><!--link Analyst to KnowledgeStore--><g class="link" data-entity-1="ent0003" data-entity-2="ent0014" data-link-type="dependency" data-source-line="69" id="lnk36"><path d="M70.78,136.1083 C62.52,175.2883 52.5,233.3883 52.5,284.6983 C52.5,284.6983 52.5,284.6983 52.5,816.5583 C52.5,926.4483 394.5127,963.8574 585.5027,976.3274" fill="none" id="Analyst-to-KnowledgeStore" style="stroke:#475569;stroke-width:1;"/><polygon fill="#475569" points="591.49,976.7183,582.7697,972.1404,586.5006,976.3925,582.2485,980.1234,591.49,976.7183" style="stroke:#475569;stroke-width:1;"/><text fill="#000000" font-family="Inter" font-size="14" lengthAdjust="spacing" textLength="117.6191" x="81.9102" y="584.3834">&#1088;&#1091;&#1095;&#1085;&#1072;&#1103; &#1087;&#1088;&#1086;&#1074;&#1077;&#1088;&#1082;&#1072;</text><text fill="#000000" font-family="Inter" font-size="14" lengthAdjust="spacing" textLength="174.4395" x="53.5" y="600.8717">&#1074;&#1072;&#1078;&#1085;&#1099;&#1093; &#1089;&#1074;&#1103;&#1079;&#1077;&#1081; &#1080; &#1075;&#1080;&#1087;&#1086;&#1090;&#1077;&#1079;</text></g><!--link Analyst to TopicConfig--><g class="link" data-entity-1="ent0003" data-entity-2="ent0009" data-link-type="dependency" data-source-line="70" id="lnk37"><path d="M157.38,107.7683 C243.4,127.5083 387.78,161.0783 511.5,191.9683 C590.9,211.7983 674.254,233.737 742.964,252.127" fill="none" id="Analyst-to-TopicConfig" style="stroke:#475569;stroke-width:1;"/><polygon fill="#475569" points="748.76,253.6783,741.1002,247.4874,743.93,252.3855,739.0318,255.2154,748.76,253.6783" style="stroke:#475569;stroke-width:1;"/><text fill="#000000" font-family="Inter" font-size="14" lengthAdjust="spacing" textLength="145.1885" x="477.74" y="180.5034">&#1085;&#1072;&#1089;&#1090;&#1088;&#1086;&#1081;&#1082;&#1072; &#1090;&#1077;&#1084;&#1099; MVP</text></g><!--link RelationLayer to GMN38--><g class="link" data-entity-1="ent0013" data-entity-2="ent0039" data-link-type="association" data-source-line="73" id="lnk40"><path d="M700.75,433.7083 C724.81,409.1183 758.38,380.7083 795,367.4383 C925.37,320.1883 971.15,339.5983 1107,367.4383 C1153.26,376.9083 1201.49,395.0883 1243.48,413.9583" fill="none" id="RelationLayer-GMN38" style="stroke:#475569;stroke-width:1;stroke-dasharray:7,7;"/></g><!--link Logrus to GMN41--><g class="link" data-entity-1="ent0008" data-entity-2="ent0042" data-link-type="association" data-source-line="83" id="lnk43"><path d="M1140.8795,289.0549 C1141.1087,289.1192 1141.3422,289.1847 1141.5803,289.2515 C1142.0563,289.3851 1142.5502,289.5236 1143.0615,289.6671 C1145.107,290.241 1147.433,290.8937 1150.0249,291.621 C1160.3929,294.5302 1175.0166,298.6341 1192.9652,303.6711 C1228.8622,313.7452 1278.0581,327.552 1333.1037,343.0008 C1443.195,373.8983 1576.685,411.3633 1673.98,438.6683" fill="none" id="Logrus-GMN41" style="stroke:#475569;stroke-width:1;stroke-dasharray:7,7;"/></g><?plantuml-src ZLXTRzHM47tthxYbZsnI8K4_a5ef1D96JL14e4zvSTREOk7OaTS10Qgq-MhQBYLHwKEbgb1e--uiMTRPn9k_SFqN-ajwPgxjzTS6a4ZMwtlFp9mvCtTkVCktJI7_a2_b2_cN_5k-5elVBOd_Ehy96SYZU2lUZZluD8otPII3-438eHp9CtcEdv7iooXxWRLx-E9C1fhMVc0v6xgdhukckxxXEgRZB_kFOSapcxxkj6mpjwHzNpVSHvRJ4ckwtSw_MTMR3rgUk-aOiwxjUkBZEVwNMs6OQ_gcxS-vZdzRNpV5lEERNltxPUk9AQvSpRtS0BpUCYTxDkDvxgF4zDNFhbtxz8lSozaqiXkkPvXUicpsnirhjwxKBgi4y_dSpDniRkbDtTTNzRPvCM2swhruIog-Y-7IHHEerlIcZyTByXKIVXe_amFyxY7XsyWrdbUSh--8JyI2sT9j_APeRKjtcYOUxbZj1vU4tXRtsaXA2dH8Uf6dCWH4A8ShJjo9T-BzL5xdq1jPwEFtK0OaHyQOSNJxSTlNjARjRXh0UOdzG-pjGg9TsHS0X5hbYA40B4FUj-nkUaspBPvgOYn6RFyJ4HrYKsgnJngFkqAzuAqSLBA_jFiL31-Gradu7JYxJrG0ZHz-fCA0FmYdXqW3TYnnPyCqc_VhGTyG4_Au8L1up-MnV0UexGPWYvo43S60b0CLCqKRCFmSM4x1lzUqHE70BbMuYizjUPjLPjweAcRqVTZS8lIqygDu5-RU8cDe2_4F52J5NQQUN4JaIYeTUkOW0Zo7n0X5rMFiW7D0Wa1qb05sxQwxOJLdNMVDQcabzrxB8rZg210Km5m40UojE3DBywIuvMNy_ERkuWAZp3iji-rRhgDLaWy42f9q24bdaI2EBfDz8X8EYFEG5egfhmIOESOJRDA2OwmR8cDdgW-ooTkkjwxRrXEzpkplCDNZIFULGY1RK312lhkSnXDui4zCfgeavqRG4wW4XMzXijzGYQ3FJEEGrmEc1qKEY1DsvDP3s5pG7wFooje5ekhhexmNQdkVVTXDMlvO08L58Uno0oZBfBAAKvHLUs4T8WZf666WGPBtEwRDp6ME6qctWz__ie0Y5b0O_qGG0qQF57FbVCJTHe7T-80BPmTR8qM12cJihp0VMeQ9vjMez-vRntracmOT6Qvdbdazd13gILeB9yeOFXsh6c7VVeuFy6sKjWnEAHSQdxpu_xOOKfEgWhqSzqNVQhQrQeiYIzZC2a6GBDgGZsogjLrAThnLS2fWTGLKYLpEr85B7CA_4JlCnPqu3RrofH1EVHzUybnZi-dVcwU-bFJmXOL5bEkjzLNJC73-jrL0yvMEL5CtYYRLMxTWSbSrGLN7x6EPMjbFu1TTmxIvFQPdmnHAE-iLuhhWj1VEbgpNo3wtUPJd3lhGwTYg3BLSqwf09cMjk8IFbDhj-5bbpxXiyviGTwWwVloCZnWYGz5FynVSEgiW5Kg9WXfIKOkiz4C2-w0wha1dcil1xYOjDKpEgY21pmc-tEarRSmGmHPxP-6fn8sMeudU50kJc2jhjbBuGWKEBqfOgK0ejh0gF4g_7AGb_KwTFmfig8GlUvfMSgWk7n_WOhMZQKMKihyreY-rTaf1eRNL8DQnEMxfatjaRTXvhHH35fTpm2lEvIhUU6yfq5HjeEOqKno4cDCRY6EzKTjBl-cL42k1NdHSqT5wHXCPVQ5clPosQsCVzxpi4tzFyp1PoyrrOA6Vp9D59zAmBkgmv5Ye9HFoX1HUD6JpC1QCnPnJZAWA9cydtnaGKAHcNJL1gSCZgJ8QEZNDSNtSjApMVL-uQwN3NWZvgt92ZgxZgMO8KTTCvHmQuKTVYjhkLLrMZ406qtHOod_UPw0kGTEqyytxhQQ7UDONecJlYw8hWkdgeonsI5oYVBZAamRjcZWIq4fAqdWicDPCnn14TKBugklxxZenhYP-u24RKrH4r5tYhUiqxFAvb9-7-OOV9NShmSAZdWBVfk9Vb4Fyfu12dL3YEYHGrV2FSKU4teuODL83_xIGX-1pZ_Mjhbrycr3jxfGL40Z-2yE0hGA2pqgXLXofQmIVXOefzZ5J6hj3b0ucNLcUDsfkYqHpyTAYReTyagbxG4Jp5_aM4IVdYPbpnkfc2OCh1vYxEfJlB1F_0m00?></g></svg>